<svg width="14" height="24" viewBox="0 0 14 24" fill="none" xmlns="http://www.w3.org/2000/svg">
<path d="M0.86084 23.7984C0.987862 23.9265 1.16047 23.999 1.34084 24C1.43036 24.0009 1.5191 23.9834 1.60164 23.9487C1.68418 23.9141 1.75877 23.8629 1.82084 23.7984L13.1392 12.48C13.2028 12.4173 13.2533 12.3425 13.2877 12.2601C13.3222 12.1777 13.3399 12.0893 13.3399 12C13.3399 11.9107 13.3222 11.8223 13.2877 11.7399C13.2533 11.6575 13.2028 11.5828 13.1392 11.52L1.82084 0.199219C1.75861 0.13269 1.68362 0.0793608 1.60036 0.0424049C1.51709 0.00544906 1.42724 -0.0143782 1.33615 -0.0158968C1.24507 -0.0174155 1.1546 -0.000594472 1.07015 0.0335651C0.985698 0.0677247 0.90898 0.118525 0.844563 0.182942C0.780145 0.247359 0.729346 0.324077 0.695186 0.40853C0.661027 0.492982 0.644206 0.583444 0.645724 0.674531C0.647243 0.765618 0.66707 0.855469 0.704026 0.938736C0.740982 1.022 0.794311 1.09698 0.86084 1.15922L11.6992 12L0.86084 22.8384C0.797564 22.9013 0.747348 22.9761 0.713082 23.0585C0.678816 23.1409 0.661175 23.2292 0.661175 23.3184C0.661175 23.4076 0.678816 23.496 0.713082 23.5784C0.747348 23.6607 0.797564 23.7355 0.86084 23.7984Z" fill="white"/>
</svg>
